<svg width="640" height="360" viewBox="0 0 640 360" fill="none" xmlns="http://www.w3.org/2000/svg" role="img" aria-label="Restaurant operations illustration">
  <rect width="640" height="360" fill="white"/>

  <g stroke="#000000" stroke-width="7" stroke-linecap="round" stroke-linejoin="round">
    <path d="M74 266H568"/>

    <rect x="62" y="183" width="120" height="77" rx="12" fill="#000000"/>
    <path d="M78 205H128" stroke="#FF6B35"/>
    <path d="M78 225H140" stroke="#FF6B35"/>
    <path d="M78 244H118" stroke="#FF6B35"/>
    <rect x="150" y="207" width="16" height="16" rx="3" fill="#FF6B35" stroke="#FF6B35"/>
    <rect x="150" y="232" width="16" height="16" rx="3" fill="#FF6B35" stroke="#FF6B35"/>
    <path d="M95 183L83 146H151L139 183" fill="white"/>
    <path d="M100 158H133"/>

    <rect x="224" y="190" width="58" height="58" rx="8" fill="white"/>
    <path d="M253 190V248"/>
    <path d="M224 219H282"/>
    <path d="M224 219H282" stroke="#FF6B35"/>
    <path d="M207 248H299"/>
    <path d="M205 174H302"/>
    <path d="M221 174V146"/>
    <path d="M286 174V146"/>
    <path d="M215 146H292"/>
    <path d="M232 133V116"/>
    <path d="M275 133V116"/>
    <path d="M232 133H275"/>

    <path d="M356 188H429L443 260H342L356 188Z" fill="#FF6B35" stroke="#FF6B35"/>
    <path d="M370 188C370 157 415 157 415 188" stroke="#000000"/>
    <rect x="374" y="221" width="64" height="39" rx="6" fill="white"/>
    <path d="M384 238H429"/>

    <rect x="475" y="154" width="82" height="106" rx="13" fill="white"/>
    <path d="M492 207L513 184L538 210L513 236L492 207Z" fill="#FF6B35" stroke="#FF6B35"/>
    <circle cx="515" cy="207" r="7" fill="white" stroke="white"/>
    <path d="M493 244H539"/>
    <circle cx="516" cy="249" r="4" fill="#000000"/>

    <path d="M305 130C315 93 371 93 381 130" fill="#FF6B35" stroke="#000000"/>
    <path d="M334 88V68"/>
    <path d="M313 131H382"/>
    <path d="M301 151C320 166 367 166 386 151"/>

    <rect x="433" y="94" width="89" height="54" rx="8" fill="white"/>
    <path d="M433 122H522"/>
    <path d="M456 94V70H506V94"/>
    <path d="M457 147V162"/>
    <path d="M499 147V162"/>
    <path d="M453 162H503"/>
    <path d="M451 109H473" stroke="#FF6B35"/>
    <path d="M451 135H501" stroke="#FF6B35"/>

    <path d="M89 121H172"/>
    <path d="M100 121V92"/>
    <path d="M161 121V92"/>
    <path d="M116 91H145"/>
    <path d="M122 91V76"/>
    <path d="M139 91V76"/>
    <path d="M122 76H139"/>
    <path d="M101 134H160" stroke="#FF6B35"/>
  </g>
</svg>
